# xmcd
#
# Track frame offsets: 
#        150
#        15344
#        31987
#        50377
#        72691
#        83898
#        102101
#        117575
#        135190
#        151888
#        171229
#        188415
#        206577
#        222198
#        243493
#        259532
#        275773
#        295963
#
# Disc length: 4187 seconds
#
# Revision: 0
# Processed by: cddbd v1.5.2PL0 Copyright (c) Steve Scherf et al.
# Submitted via: ExactAudioCopy v0.95a5
#
DISCID=fd105912
DTITLE=Various Artist - New Soul Voices
DYEAR=2008
DGENRE=R&B
TTITLE0=Mick Hucknull - Farther Up The Road (Album Version)
TTITLE1=Sharon Jones - 100 Days, 100 Nights
TTITLE2=Joy Denalane - Let Go
TTITLE3=Soulounge - Your Baby
TTITLE4=Don Cavalli - Summertime
TTITLE5=Cookin' On 3 Burners - Settle The Score
TTITLE6=Beverly Night - No Man's Land
TTITLE7=Kylie Auldist - Still Into You
TTITLE8=Jamie Lidell - Another Day
TTITLE9=The Bamboos - Head In The Clouds
TTITLE10=K_Os - The Rain
TTITLE11=Soul Vagilantes - When I Go To Bed
TTITLE12=Eli 'Paperboy' Reed - Take My Love With You
TTITLE13=The Bahama Soul Club - Sugar Cane
TTITLE14=Nicole Willis - Feeling Free
TTITLE15=Glen Anthony Henry - I Don't Know
TTITLE16=Raúl Midón - Sunshine (I Can Fly)
TTITLE17=Amanda Melomé - Caterpillar (Album Version)
EXTD=
EXTT0=
EXTT1=
EXTT2=
EXTT3=
EXTT4=
EXTT5=
EXTT6=
EXTT7=
EXTT8=
EXTT9=
EXTT10=
EXTT11=
EXTT12=
EXTT13=
EXTT14=
EXTT15=
EXTT16=
EXTT17=
PLAYORDER=
